HIERARCHY
ROOT Hips
{
	OFFSET -0.179506 -22.333345 2.821913
	CHANNELS 6 Xposition Yposition Zposition Zrotation Yrotation Xrotation 
	JOINT LeftUpLeg
	{
		OFFSET 6.951974 -9.140623 -0.681533
		CHANNELS 3 Zrotation Yrotation Xrotation
		JOINT LeftLeg
		{
			OFFSET 3.427654 -37.519855 -0.449580
			CHANNELS 3 Zrotation Yrotation Xrotation
			JOINT LeftFoot
			{
				OFFSET -1.359570 -39.796059 -4.369333
				CHANNELS 3 Zrotation Yrotation Xrotation
				JOINT LeftToe
				{
					OFFSET 2.635814 -5.579078 11.928840
					CHANNELS 3 Zrotation Yrotation Xrotation
					End Site
					{
						OFFSET 0.000000 0.000000 0.000000
					}
				}
			}
		}
	}
	JOINT RightUpLeg
	{
		OFFSET -6.767048 -9.052170 -0.431982
		CHANNELS 3 Zrotation Yrotation Xrotation
		JOINT RightLeg
		{
			OFFSET -3.829005 -38.256897 -0.885003
			CHANNELS 3 Zrotation Yrotation Xrotation
			JOINT RightFoot
			{
				OFFSET 1.577377 -39.841461 -4.231180
				CHANNELS 3 Zrotation Yrotation Xrotation
				JOINT RightToe
				{
					OFFSET -2.537174 -4.814398 12.334795
					CHANNELS 3 Zrotation Yrotation Xrotation
					End Site
					{
						OFFSET 0.000000 0.000000 0.000000
					}
				}
			}
		}
	}
	JOINT Spine
	{
		OFFSET -0.253288 10.896323 -2.669631
		CHANNELS 3 Zrotation Yrotation Xrotation
		JOINT Spine1
		{
			OFFSET 0.548704 13.518043 0.109247
			CHANNELS 3 Zrotation Yrotation Xrotation
			JOINT Spine2
			{
				OFFSET 0.145701 5.292222 2.542457
				CHANNELS 3 Zrotation Yrotation Xrotation
				JOINT Neck
				{
					OFFSET -0.277840 21.387037 -4.285703
					CHANNELS 3 Zrotation Yrotation Xrotation
					JOINT Head
					{
						OFFSET 0.515184 6.496960 5.134897
						CHANNELS 3 Zrotation Yrotation Xrotation
						End Site
						{
							OFFSET 0.000000 0.000000 0.000000
						}
					}
				}
				JOINT LeftShoulder
				{
					OFFSET 7.884473 12.174932 -3.408961
					CHANNELS 3 Zrotation Yrotation Xrotation
					JOINT LeftArm
					{
						OFFSET 9.097692 3.046888 -0.886815
						CHANNELS 3 Zrotation Yrotation Xrotation
						JOINT LeftForeArm
						{
							OFFSET 25.961220 -1.277207 -2.745643
							CHANNELS 3 Zrotation Yrotation Xrotation
							JOINT LeftHand
							{
								OFFSET 24.923361 0.898606 -0.117091
								CHANNELS 3 Zrotation Yrotation Xrotation
								End Site
								{
									OFFSET 0.000000 0.000000 0.000000
								}
							}
						}
					}
				}
				JOINT RightShoulder
				{
					OFFSET -8.175920 11.883285 -3.861528
					CHANNELS 3 Zrotation Yrotation Xrotation
					JOINT RightArm
					{
						OFFSET -9.601238 3.255117 -0.914307
						CHANNELS 3 Zrotation Yrotation Xrotation
						JOINT RightForeArm
						{
							OFFSET -25.374195 -1.332924 -2.140099
							CHANNELS 3 Zrotation Yrotation Xrotation
							JOINT RightHand
							{
								OFFSET -25.529810 0.777228 -0.555919
								CHANNELS 3 Zrotation Yrotation Xrotation
								End Site
								{
									OFFSET 0.000000 0.000000 0.000000
								}
							}
						}
					}
				}
			}
		}
	}
}
MOTION
Frames: 12
Frame Time: 0.033333
-47.831001 22.678165 92.909172 -118.589901 1.762579 84.228011 3.751483 -0.689358 -8.245173 -3.383955 -4.686897 22.145534 4.027604 11.031589 -17.369911 nan nan nan -2.735769 -0.497706 -12.019994 3.243096 -2.305885 31.721435 1.999500 -4.861763 -20.344845 nan nan nan -0.004094 -0.101461 19.044280 4.334484 -2.570627 -0.692764 2.850020 -3.149434 2.984200 2.667788 0.097279 -12.372481 -0.263060 -9.976247 3.352859 -24.703187 0.013008 3.145508 -58.029924 -8.864090 10.329043 9.624200 -32.882612 7.402405 -4.521200 -7.436404 -11.529397 30.323202 5.757372 0.867939 53.847178 9.313822 12.134486 -13.244146 20.949637 -7.180270 5.205300 0.696238 -7.799116 
-47.988327 22.651695 92.864044 -118.701810 1.865639 84.285569 3.794221 -0.698425 -7.990573 -3.299891 -4.806787 21.604528 4.009502 11.106183 -17.294820 nan nan nan -2.630960 -0.518296 -11.931049 3.459134 -2.196158 31.276612 2.055549 -4.723340 -20.352350 nan nan nan -0.003362 0.036853 18.731214 4.226080 -2.429146 -0.604836 2.813206 -2.999554 3.065539 2.836341 -0.008682 -12.425386 -0.051731 -10.122476 3.361940 -24.520712 -0.133870 3.104096 -58.299522 -9.162652 10.395301 9.807854 -32.695337 7.088900 -4.251648 -7.438159 -11.709156 30.174365 5.684388 1.021284 53.953642 9.111744 12.044173 -13.214358 20.363289 -7.141515 5.283729 0.619451 -7.855928 
-48.216610 22.861874 92.933792 -119.423633 1.752873 83.395399 3.731547 -0.220506 -6.234221 -2.866012 -4.447580 20.703282 3.283768 10.666289 -17.628687 nan nan nan -2.340308 -0.055477 -10.629859 2.808384 -2.528422 30.565524 2.282439 -3.937677 -20.763605 nan nan nan -0.589852 0.648948 19.092642 4.170533 -2.324009 0.109330 3.097633 -2.811160 3.038096 2.737130 0.160758 -12.578936 0.330530 -10.349678 2.985428 -23.987012 -0.331580 2.920114 -59.053319 -9.371516 10.268573 10.626146 -32.056847 6.158821 -4.262198 -9.620811 -12.017245 29.932065 5.349320 0.951409 54.304486 8.560911 11.731968 -15.287761 22.630131 -9.748807 5.273161 6.789906 -10.392158 
-48.377197 22.817406 92.942169 -119.452296 1.795204 83.371037 3.663913 -0.194300 -5.987394 -2.755267 -4.474752 20.415687 3.257214 10.681507 -17.627374 nan nan nan -2.226484 -0.112459 -10.399912 2.786526 -2.574531 29.870173 2.288706 -3.931789 -20.748543 nan nan nan -0.580123 0.753556 18.917180 4.056873 -2.255754 0.237872 3.067193 -2.747526 3.074612 2.741809 -0.040810 -12.602505 0.502323 -10.509376 2.942297 -23.849376 -0.375632 2.881520 -59.318361 -9.614294 10.301977 10.958759 -32.063500 5.791807 -4.105860 -9.672640 -12.297704 29.786865 5.421084 1.059295 54.478179 8.457303 11.631561 -15.134249 21.782349 -9.743777 5.462695 6.708165 -10.503673 
-48.485065 22.934504 92.970985 -119.202231 2.181530 82.549333 4.069619 -0.491243 -5.043563 -2.262957 -3.683780 20.509232 0.342390 9.535831 -19.078764 nan nan nan -1.371751 0.664124 -8.893545 1.826034 -3.663156 28.657304 2.625279 -3.744694 -21.444090 nan nan nan -0.780925 1.552553 18.255966 4.973771 -2.969051 3.527632 3.082938 -2.083050 1.806134 2.523598 0.276250 -12.187206 0.874526 -12.031133 0.581356 -23.558700 -1.850484 3.619887 -60.257585 -11.124134 12.105852 12.778273 -29.101960 4.977980 -1.827362 -15.455894 -17.156423 30.255533 6.297527 1.958922 54.469033 8.424067 11.192845 -17.327658 19.987111 -8.613219 5.547284 12.310639 -12.246823 
-48.641148 22.907963 92.890343 -119.439858 1.878746 82.519099 3.678824 -0.666553 -4.656941 -1.903571 -2.972096 20.195882 -0.381144 9.110949 -19.312259 nan nan nan -1.580244 1.339694 -8.435960 1.786654 -3.968444 27.829958 2.386492 -3.589747 -21.909057 nan nan nan -1.577389 2.435660 16.510177 5.260661 -2.839860 6.978952 3.375082 -3.243580 0.677269 2.700915 -0.528069 -10.999930 0.210500 -11.919011 -3.015760 -22.649762 -0.825094 3.374168 -62.063083 -12.647027 13.177421 14.500837 -27.993535 6.440989 -2.070839 -17.313016 -17.476890 28.832201 4.693811 -2.334762 56.052722 9.458775 13.487982 -15.153456 16.341146 -5.610785 7.077324 14.785976 -12.212167 
-48.777637 22.857479 92.866203 -119.460910 1.835409 82.644169 3.586062 -0.840378 -4.593041 -1.964608 -2.907134 20.021644 -0.314202 9.220232 -19.271683 nan nan nan -1.457645 1.442603 -8.160175 1.865433 -3.614147 26.938303 2.509078 -3.664453 -21.802034 nan nan nan -1.604167 2.489655 16.285814 5.102059 -2.828195 7.045319 3.303579 -3.118165 0.676864 2.595777 -0.659672 -11.237742 0.449665 -12.029794 -2.903807 -22.298410 -0.954368 3.412212 -62.520351 -12.727594 13.303465 14.880999 -28.238986 6.311245 -1.610835 -17.127330 -17.424999 28.523188 4.813805 -2.214114 56.552092 9.226377 13.480314 -15.313335 15.733106 -5.381164 7.852308 14.578507 -11.961192 
-48.889839 22.836990 92.854179 -119.449086 1.852474 82.714759 3.556647 -0.965899 -4.480963 -1.985314 -2.897622 19.818752 -0.262245 9.291079 -19.292732 nan nan nan -1.265997 1.418491 -7.839052 1.817778 -3.404012 25.990088 2.583062 -3.494615 -20.942708 nan nan nan -1.563862 2.495251 16.282219 4.944955 -2.789281 6.800986 3.286560 -2.991164 0.727564 2.367572 -0.961504 -11.330356 0.715399 -12.088498 -2.823188 -22.139574 -0.987349 3.469735 -62.841846 -12.850291 13.293854 15.331741 -28.338452 5.570206 -1.397589 -17.336847 -18.645804 28.393816 4.917489 -1.920592 56.786496 9.021304 13.396595 -15.369758 15.206639 -5.070196 8.348572 14.397667 -11.704086 
-48.992897 22.834538 92.837608 -119.435546 1.875267 82.839320 3.536507 -1.113950 -4.470777 -1.990824 -2.927312 19.697746 -0.146680 9.347385 -19.319377 nan nan nan -1.047399 1.350550 -7.589301 1.698578 -3.225290 24.995080 2.565123 -3.427981 -19.845588 nan nan nan -1.546929 2.473328 16.287613 4.821252 -2.684153 6.386797 3.300655 -2.909999 0.772550 2.099525 -1.296241 -11.265635 0.987940 -12.011195 -2.763156 -22.124316 -0.761006 3.503307 -63.091835 -13.008059 13.241175 15.671684 -28.447414 4.921658 -1.189775 -17.651098 -20.320858 28.292320 4.827489 -1.659928 56.948749 8.837619 13.389298 -15.358588 14.729893 -4.602479 8.804825 14.134412 -11.348352 
-49.093258 22.838245 92.836967 -119.422249 1.857318 82.825812 3.484412 -1.188136 -4.319739 -1.975062 -2.874517 19.564014 -0.077891 9.331985 -19.264714 nan nan nan -0.874387 1.267530 -7.127106 1.600492 -3.063627 23.908507 2.512491 -3.368909 -18.674284 nan nan nan -1.537166 2.505840 16.265729 4.686898 -2.639223 6.276087 3.282670 -2.860186 0.781414 1.855735 -1.510378 -11.288573 1.181158 -11.946495 -2.718827 -22.160699 -0.678264 3.495844 -63.218252 -13.127809 13.151618 15.902383 -28.540569 4.601352 -1.037781 -17.912332 -20.577534 28.216953 4.801707 -1.555495 57.077076 8.628240 13.366343 -15.411867 14.256361 -4.073046 9.522754 13.870494 -10.733858 
-49.198723 22.861385 92.839706 -119.395580 1.856457 82.733924 3.498897 -1.202804 -4.112803 -1.996715 -2.726673 19.481787 -0.014776 9.205133 -19.231853 nan nan nan -0.699217 1.063130 -6.535335 1.538964 -2.864905 22.804709 2.224312 -3.383461 -17.585901 nan nan nan -1.489247 2.580620 16.099437 4.563638 -2.720639 6.579114 3.243057 -2.784336 0.717687 1.612821 -1.774228 -11.360448 1.408694 -11.909686 -2.866400 -22.136805 -0.901886 3.568009 -63.352684 -13.136586 13.113174 16.195540 -28.635690 3.941862 -0.711653 -18.060237 -20.560247 28.125932 4.943224 -1.470087 57.215171 8.373785 13.311278 -15.528872 13.876976 -3.728009 10.438117 13.646706 -10.119546 
-49.301949 22.891487 92.842064 -119.386826 1.836527 82.695132 3.490279 -1.194710 -3.939043 -1.997228 -2.629197 19.370841 0.046346 9.136135 -19.237111 nan nan nan -0.548599 0.745142 -6.005920 1.419057 -2.562702 21.838304 1.884289 -3.719632 -16.968845 nan nan nan -1.460936 2.687337 15.939862 4.430071 -2.796430 6.743159 3.197985 -2.686649 0.665101 1.471266 -2.085541 -11.422585 1.617479 -11.898622 -2.901002 -22.055710 -1.041021 3.627804 -63.539709 -13.185851 13.087088 16.451842 -28.686128 3.343146 -0.523656 -18.035621 -20.789015 28.071114 4.974882 -1.434090 57.306064 8.074078 13.279485 -15.522555 13.574878 -3.374836 11.441666 13.454771 -9.522423 
